# xmcd CD database file
#
# Track frame offsets:
#	150
#	11400
#	25312
#	36390
#	48752
#	60505
#	70900
#	83175
#	93610
#	105405
#	116705
#	127355
#	137257
#	146632
#	157280
#	168065
#	179827
#	190255
#	201127
#	212747
#
# Disc length: 2987 seconds
#
# Revision: 1
# Processed by: cddbd v1.4PL0 Copyright (c) Steve Scherf et al.
# Submitted via: CDex 1.40Release
#
DISCID=240ba914
DTITLE=Ernie Lee - The Kentucky Balladeer
DYEAR=1900
DGENRE=Country
TTITLE0=If You've Got The Money I've Got The Time
TTITLE1=I Never See Maggie Alone
TTITLE2=One, Two, Thre, Four, Five Foot Six
TTITLE3=Your Train
TTITLE4=Crazy Game Of Love
TTITLE5=Doggone Long Gone Blues
TTITLE6=Tried And Found Guilty
TTITLE7=Don't Think It Ain't Been Fun, Dear 'Cause It Ain't
TTITLE8=I'm Not Lonesome Anymore
TTITLE9=One Little Candle
TTITLE10=I'm Always Longing For You Baby
TTITLE11=Ukulele Baby
TTITLE12=I'm In A Kissing Mood
TTITLE13=I'll Never Stand In Your Way
TTITLE14=Wrong Number
TTITLE15=How Come You Never Answer
TTITLE16=I've Got My Heart On A Budget
TTITLE17=Your Left Over Kisses
TTITLE18=Headin' Home(To Old Kentucky)
TTITLE19=While You're Out Cheating w. Charlie Gore
EXTD=ID3G: 2
EXTT0=
EXTT1=
EXTT2=
EXTT3=
EXTT4=
EXTT5=
EXTT6=
EXTT7=
EXTT8=
EXTT9=
EXTT10=
EXTT11=
EXTT12=
EXTT13=
EXTT14=
EXTT15=
EXTT16=
EXTT17=
EXTT18=
EXTT19=
PLAYORDER=
